<svg height="512pt" viewBox="0 -92 512 512" width="512pt" xmlns="http://www.w3.org/2000/svg"><path d="m424.089844 237.492188c-18.226563 0-33.050782 14.824218-33.050782 33.046874 0 18.226563 14.824219 33.050782 33.050782 33.050782 18.222656 0 33.046875-14.824219 33.046875-33.050782 0-18.222656-14.824219-33.046874-33.046875-33.046874zm0 51.097656c-9.953125 0-18.050782-8.097656-18.050782-18.050782 0-9.949218 8.097657-18.046874 18.050782-18.046874 9.949218 0 18.046875 8.097656 18.046875 18.046874 0 9.953126-8.097657 18.050782-18.046875 18.050782zm0 0"/><path d="m85.816406 237.492188c-18.226562 0-33.050781 14.824218-33.050781 33.046874 0 18.226563 14.824219 33.050782 33.050781 33.050782 18.222656 0 33.046875-14.824219 33.046875-33.050782 0-18.222656-14.824219-33.046874-33.046875-33.046874zm0 51.097656c-9.953125 0-18.050781-8.097656-18.050781-18.050782 0-9.949218 8.097656-18.046874 18.050781-18.046874s18.046875 8.097656 18.046875 18.046874c0 9.953126-8.09375 18.050782-18.046875 18.050782zm0 0"/><path d="m502.757812 250.304688c0-44.457032 0 38.550781 0-79.09375 0-10.371094-7.042968-19.320313-17.128906-21.753907l-46.121094-11.144531c-1.527343-.371094-2.644531-1.503906-3.101562-2.78125 0 0 0-.003906-.003906-.003906l-21.539063-59.921875-2.882812-8.019531c-4.636719-12.894532-16.566407-21.757813-30.109375-22.636719v-13.675781c0-10.78125-8.773438-19.554688-19.550782-19.554688h-11.15625c-10.78125 0-19.550781 8.773438-19.550781 19.554688v13.589843h-10.445312v-20.457031c0-13.457031-10.949219-24.40625-24.40625-24.40625h-114.242188c-4.140625 0-7.5 3.359375-7.5 7.5 0 4.144531 3.359375 7.5 7.5 7.5h114.242188c5.1875 0 9.40625 4.222656 9.40625 9.40625v224.101562h-167.535157c-19.425781-46.898437-86.257812-46.777343-105.632812 0h-9.128906v-224.101562c0-5.1875 4.222656-9.40625 9.40625-9.40625h114.242187c4.144531 0 7.5-3.359375 7.5-7.5s-3.355469-7.5-7.5-7.5h-114.242187c-13.457032 0-24.40625 10.949219-24.40625 24.40625v226.078125c-5.273438 2.820313-8.871094 8.378906-8.871094 14.769531v10.574219c0 9.234375 7.511719 16.746094 16.746094 16.746094h16.269531c19.566406 46.714843 85.960937 46.886719 105.597656 0h232.675781c8.644532 20.644531 29.054688 35.183593 52.800782 35.183593 23.742187 0 44.152344-14.539062 52.796875-35.183593h18.371093c9.230469 0 16.742188-7.511719 16.742188-16.746094v-10.574219c0-6.535156-3.773438-12.191406-9.242188-14.949218zm-181.589843-51.046876h138.957031v14.066407h-138.957031zm166.589843 20.953126h-12.632812v-27.683594h12.632812zm-19.40625 13.972656c1.578126.660156 3.304688 1.023437 5.117188 1.023437h14.289062v13.300781h-10.847656c-2.179687-5.253906-5.078125-10.0625-8.558594-14.324218zm-48.285156-99.761719h-61.035156c-2.464844 0-4.550781-2.085937-4.550781-4.554687v-39.671876c0-2.46875 2.085937-4.550781 4.550781-4.550781h43.5c10.507812 29.226563 6.238281 17.34375 17.535156 48.777344zm-73.453125-103.152344c0-2.464843 2.082031-4.550781 4.550781-4.550781h11.15625c2.464844 0 4.550782 2.085938 4.550782 4.550781v13.59375h-20.257813zm33.050781 28.59375c7.394532 0 14.097657 4.257813 17.328126 10.777344h-37.957032c-10.78125 0-19.554687 8.773437-19.554687 19.554687v39.671876c0 10.78125 8.769531 19.550781 19.554687 19.550781h69.691406c2.117188 1.625 4.574219 2.824219 7.257813 3.472656l46.121094 11.144531c3.328125.804688 5.652343 3.753906 5.652343 7.175782v6.316406h-14.289062c-4.953125 0-9.273438 2.714844-11.578125 6.730468h-140.722656v-124.394531zm-58.496093 168.460938h64.191406c-6 5.511719-10.847656 12.347656-14.09375 20.183593h-50.097656zm-292.136719 49.25h-12.285156c-.964844 0-1.746094-.785157-1.746094-1.746094v-10.574219c0-.914062.707031-1.65625 1.601562-1.730468.023438-.003907.042969 0 .066407-.003907.109375-.003906.195312-.007812.265625-.011719h.066406 12.03125c-.578125 4.683594-.558594 9.570313 0 14.066407zm56.785156 35.183593c-19.535156 0-36.296875-13.421874-40.941406-31.90625-7.09375-28.175781 15.929688-55.34375 45.433594-52.285156 25.367187 2.695313 42.902344 27.484375 36.371094 52.589844-4.722657 18.160156-21.25 31.601562-40.863282 31.601562zm281.484375-35.183593h-224.699219c.589844-4.78125.558594-9.542969 0-14.066407h224.699219c-.53125 4.332032-.585937 9.320313 0 14.066407zm56.789063 35.183593c-19.539063 0-36.296875-13.421874-40.941406-31.90625-6.324219-25.121093 11.347656-49.882812 36.828124-52.324218 39.152344-3.800782 47.527344 39.421875 44.425782 29.476562 8.457031 27.128906-11.933594 54.753906-40.3125 54.753906zm72.910156-36.929687c0 .964844-.78125 1.746094-1.742188 1.746094h-14.382812c.53125-4.3125.578125-9.355469 0-14.066407h14.382812c.960938 0 1.742188.785157 1.742188 1.746094zm0 0"/><path d="m156.320312 176.570312h21.417969c5.328125 0 9.660157-4.335937 9.660157-9.660156v-16.082031h16.082031c5.328125 0 9.664062-4.332031 9.664062-9.660156v-21.421875c0-5.328125-4.335937-9.660156-9.664062-9.660156h-16.082031v-16.082032c0-5.328125-4.332032-9.664062-9.660157-9.664062h-21.417969c-5.328124 0-9.664062 4.335937-9.664062 9.664062v16.082032h-16.082031c-5.324219 0-9.660157 4.332031-9.660157 9.660156v21.421875c0 5.328125 4.335938 9.660156 9.660157 9.660156h16.082031v16.082031c0 5.324219 4.335938 9.660156 9.664062 9.660156zm-20.40625-40.742187v-10.742187h16.082032c5.328125 0 9.660156-4.335938 9.660156-9.664063v-16.082031h10.742188v16.082031c0 5.328125 4.335937 9.664063 9.664062 9.664063h16.082031v10.742187h-16.082031c-5.328125 0-9.664062 4.335937-9.664062 9.664063v16.078124h-10.742188v-16.078124c0-5.328126-4.332031-9.664063-9.660156-9.664063zm0 0"/><path d="m235.820312 114.628906c.925782 4.039063 4.949219 6.5625 8.984376 5.636719 4.035156-.925781 6.558593-4.945313 5.636718-8.984375-8.777344-38.308594-43.078125-66.417969-83.414062-66.417969-47.195313 0-85.59375 38.394531-85.59375 85.59375 0 47.195313 38.398437 85.59375 85.59375 85.59375 19.492187 0 38.5625-6.730469 53.699218-18.949219 14.90625-12.03125 25.457032-28.890624 29.714844-47.472656.921875-4.035156-1.601562-8.058594-5.636718-8.984375-4.035157-.925781-8.0625 1.597657-8.984376 5.636719-7.386718 32.246094-35.675781 54.769531-68.792968 54.769531-38.925782 0-70.59375-31.667969-70.59375-70.59375s31.667968-70.59375 70.59375-70.59375c33.117187 0 61.40625 22.519531 68.792968 54.765625zm0 0"/></svg>