<?xml version="1.0" encoding="iso-8859-1"?>
<!-- Generator: Adobe Illustrator 21.0.0, SVG Export Plug-In . SVG Version: 6.00 Build 0)  -->
<svg xmlns="http://www.w3.org/2000/svg" xmlns:xlink="http://www.w3.org/1999/xlink" version="1.1" id="Capa_1" x="0px" y="0px" viewBox="0 0 512 512" style="enable-background:new 0 0 512 512;" xml:space="preserve" width="512" height="512">
<g>
	<g>
		<path d="M489.5,467h-69.203c2.846-1.674,5.63-3.483,8.343-5.427c23.128-16.565,38.695-41.105,43.836-69.099    c0.014-0.076,0.026-0.152,0.038-0.229l20.041-131.954c0.622-4.095-2.193-7.919-6.289-8.541c-4.096-0.626-7.919,2.193-8.541,6.289    l-20.023,131.836c-4.455,24.106-17.875,45.233-37.796,59.502c-19.643,14.071-43.939,20.242-68.579,16.602    c-22.43-3.315-42.911-14.613-57.672-31.811c-14.674-17.097-22.755-38.878-22.755-61.329c0-2.839,0.131-5.739,0.396-8.691    l8.677-108.255c0.034,0,0.069,0.001,0.103,0.001h52.07c15.131,0,27.44-12.314,27.44-27.45v-104.4    c0-29.548-23.925-53.48-53.48-53.48c-2.883,0-5.713,0.229-8.474,0.671l5.406-36.657c1.822-12.312,13.185-21.01,25.328-19.384    c8.331,1.113,13.741,5.239,16.538,12.613c2.217,5.846,2.017,11.741,1.956,12.844l-4.43,30.009    c-1.454,9.856,13.377,12.09,14.84,2.19l4.459-30.21c0.015-0.089,0.027-0.177,0.039-0.266c4.316-23.535,28.524-14.918,26.24,0.504    l-1.483,10.084c-0.006,0.037-0.012,0.074-0.018,0.112l-5.128,34.735c-1.455,9.865,13.378,12.078,14.84,2.19l4.967-33.646    c2.527-4.925,7.933-7.758,13.464-6.944c7.104,1.051,12.023,7.724,10.969,14.873l-3.35,22.65c-0.012,0.083-0.023,0.167-0.032,0.25    l-3.882,26.293c-1.455,9.865,13.378,12.078,14.84,2.19l3.727-25.243c2.68-4.538,7.806-7.032,13.078-6.254    c7.113,1.051,12.034,7.697,10.968,14.876l-4.31,29.2c-0.011,0.077-0.021,0.155-0.03,0.232l-3.467,23.485    c-1.455,9.865,13.378,12.078,14.84,2.19l3.391-22.973c2.219-5.597,8.002-8.976,13.993-8.089    c7.103,1.046,12.025,7.711,10.973,14.855l-11.458,77.62c-0.527,3.538-1.143,7.079-1.828,10.526    c-0.809,4.063,1.829,8.011,5.892,8.82c0.494,0.098,0.986,0.146,1.472,0.146c3.505,0,6.638-2.469,7.348-6.038    c0.733-3.684,1.391-7.467,1.955-11.254l11.46-77.632c2.258-15.329-8.341-29.631-23.621-31.882    c-4.481-0.664-8.905-0.221-12.975,1.145l1.204-8.155c2.281-15.373-8.291-29.644-23.617-31.911    c-4.225-0.622-8.406-0.271-12.29,0.918l0.559-3.773c2.262-15.331-8.33-29.643-23.618-31.905c-4.875-0.718-9.706-0.12-14.087,1.563    c-1.957-11.359-10.997-21.109-23.491-22.961c-8.104-1.215-15.638,0.718-21.646,6.248c-3.898-8.13-11.694-17.014-27.265-19.095    c-20.229-2.701-39.137,11.677-42.153,32.06l-6.501,44.08c-17.249,8.885-29.073,26.877-29.073,47.578v104.4    c0,9.689,5.046,18.221,12.648,23.108c-9.841,122.879-9.135,113.399-9.272,116.601c-0.13-3.019,1.184,13.979-19.099-239.141    c-0.354-7.607-1.098-15.281-2.21-22.811L223.796,32.38c-3.008-20.377-21.922-34.75-42.153-32.05    c-14.558,1.945-22.832,10.029-27.223,19.101c-5.073-4.693-12.141-7.669-21.665-6.26c-12.245,1.809-21.479,11.356-23.5,22.966    c-4.385-1.686-9.219-2.283-14.098-1.563C79.873,36.832,69.278,51.14,71.541,66.471l0.558,3.779    c-3.885-1.188-8.07-1.538-12.296-0.915c-15.285,2.259-25.879,16.568-23.617,31.897l1.204,8.16    c-4.066-1.363-8.492-1.806-12.967-1.144c-15.285,2.259-25.88,16.564-23.618,31.889l11.458,77.629    c0.925,6.263,2.124,12.561,3.565,18.725l23.654,155.755c0.012,0.077,0.024,0.153,0.039,0.229    c2.921,15.909,9.134,30.607,18.465,43.687c2.405,3.372,7.088,4.155,10.461,1.75c3.372-2.405,4.156-7.089,1.75-10.461    c-8.022-11.247-13.373-23.888-15.903-37.575L30.614,233.944c-0.03-0.199-0.068-0.396-0.114-0.591    c-1.376-5.849-2.519-11.83-3.397-17.777l-11.458-77.629c-1.054-7.144,3.867-13.81,10.971-14.86    c5.996-0.887,11.788,2.503,13.994,8.109l3.388,22.953c1.474,9.993,16.277,7.549,14.839-2.19l-3.5-23.716    c-0.002-0.013-0.004-0.026-0.006-0.039l-4.305-29.163c-1.055-7.148,3.866-13.817,10.97-14.867    c5.264-0.779,10.394,1.711,13.082,6.248l3.726,25.245c1.474,9.993,16.277,7.549,14.839-2.19l-3.917-26.538L86.38,64.28    c-1.055-7.148,3.866-13.818,10.97-14.867c5.52-0.813,10.932,2.015,13.463,6.941L115.779,90c1.474,9.993,16.277,7.549,14.839-2.19    l-5.126-34.729c0-0.002-0.001-0.004-0.001-0.006l-1.506-10.199c-1.055-7.148,3.863-13.817,10.962-14.866    c5.277-0.78,8.937,0.929,11.86,5.543c2.578,4.07,3.398,8.707,3.458,9.06l4.464,30.238c1.474,9.993,16.277,7.549,14.839-2.19    l-4.427-29.993c-0.218-3.07-0.857-22.883,18.489-25.468c12.147-1.626,23.511,7.066,25.328,19.372l10.896,73.821    c1.045,7.078,1.742,14.291,2.071,21.44c0.004,0.085,0.009,0.169,0.016,0.254l18.769,234.146    c4.508,49.756-30.648,94.448-80.038,101.745c-24.1,3.561-48.988-2.118-69.699-17.415c-3.332-2.46-8.027-1.755-10.489,1.577    c-2.461,3.332-1.755,8.028,1.577,10.489c3.121,2.305,6.337,4.43,9.635,6.373H22.5C10.093,467,0,477.093,0,489.5    C0,501.907,10.093,512,22.5,512h467c12.406,0,22.5-10.093,22.5-22.5C512,477.093,501.906,467,489.5,467z M344.587,198.167h-34.88    c-5.055,0-9.167-4.112-9.167-9.167c0-5.054,4.112-9.167,9.167-9.167h34.88V198.167z M267.626,124.045    c0-21.218,17.263-38.48,38.48-38.48c10.275,0,19.938,4.003,27.206,11.273c7.271,7.27,11.274,16.932,11.274,27.207v40.788h-34.88    c-13.326,0-24.167,10.841-24.167,24.167c0,13.326,10.841,24.167,24.167,24.167h34.88v15.278c0,6.865-5.581,12.45-12.44,12.45    h-52.07c-6.878,0-12.45-5.6-12.45-12.45V124.045z M256.003,377.564c1.061,24.35,10.294,47.76,26.269,66.375    c7.926,9.235,17.274,17.002,27.61,23.062H202.132C233.541,448.549,254.393,415.049,256.003,377.564z M489.5,497h-467    c-4.136,0-7.5-3.364-7.5-7.5c0-4.135,3.364-7.5,7.5-7.5c84.248,0,423.149,0,467,0c4.136,0,7.5,3.364,7.5,7.5    C497,493.636,493.636,497,489.5,497z"/>
		<path d="M305.246,151.635c14.888,0,27-12.112,27-27s-12.112-27-27-27s-27,12.112-27,27S290.358,151.635,305.246,151.635z     M305.246,112.635c6.617,0,12,5.383,12,12s-5.383,12-12,12s-12-5.383-12-12S298.629,112.635,305.246,112.635z"/>
	</g>
</g>















</svg>
