<?xml version="1.0"?>
<svg xmlns="http://www.w3.org/2000/svg" xmlns:xlink="http://www.w3.org/1999/xlink" width="512" height="512" viewBox="0 0 128 128"><path d="M40.148,30.976a1.75,1.75,0,0,1,1.294-2.11q.651-.156,1.277-.318a1.75,1.75,0,0,1,.873,3.39q-.654.168-1.334.331a1.747,1.747,0,0,1-2.11-1.293Zm59.78.183c-30.09-3.466-34.241-13.522-34.268-13.59a1.758,1.758,0,0,0-3.308-.033c-.019.048-1.946,4.835-12.923,8.931a1.75,1.75,0,1,0,1.223,3.279c7.679-2.865,11.5-6.124,13.355-8.371a21.83,21.83,0,0,0,4.885,4.215c6.51,4.27,16.29,7.248,29.086,8.859v31.78a41.536,41.536,0,0,1-21.809,36.612A68.814,68.814,0,0,1,64,108.047a68.814,68.814,0,0,1-12.169-5.206A41.536,41.536,0,0,1,30.022,66.229V34.448c1.873-.236,3.691-.5,5.425-.8a1.75,1.75,0,0,0-.585-3.451c-2.147.364-4.431.687-6.79.959a1.749,1.749,0,0,0-1.55,1.738V66.229a45.035,45.035,0,0,0,23.646,39.692A71.689,71.689,0,0,0,63.5,111.553a1.747,1.747,0,0,0,1.006,0,71.689,71.689,0,0,0,13.329-5.632,45.035,45.035,0,0,0,23.646-39.692V32.9A1.749,1.749,0,0,0,99.928,31.159ZM79.565,92.1q-.4.36-.814.707A1.75,1.75,0,1,0,81,95.488q.454-.382.9-.778A1.75,1.75,0,0,0,79.565,92.1Zm4.41-1.932a1.751,1.751,0,0,0,2.458-.3A38.429,38.429,0,0,0,94.6,66.229V38.851a1.751,1.751,0,0,0-1.455-1.725C86.03,35.91,72.924,33,65.042,27.15a1.746,1.746,0,0,0-2.084,0C55.076,33,41.97,35.91,34.859,37.126A1.751,1.751,0,0,0,33.4,38.851V66.229A38.159,38.159,0,0,0,53.437,99.865,67.413,67.413,0,0,0,63.43,104.3a1.757,1.757,0,0,0,1.14,0,67.367,67.367,0,0,0,9.993-4.438,1.75,1.75,0,1,0-1.663-3.08,64.563,64.563,0,0,1-8.9,4.009,64.563,64.563,0,0,1-8.9-4.009A34.662,34.662,0,0,1,36.9,66.229V40.319C45.413,38.766,56.393,35.886,64,30.7c7.607,5.184,18.587,8.064,27.1,9.617v25.91a34.909,34.909,0,0,1-7.415,21.484A1.75,1.75,0,0,0,83.975,90.171Zm.275-20.708V58.537a1.75,1.75,0,0,0-1.75-1.75H71.213V45.5a1.75,1.75,0,0,0-1.75-1.75H58.537a1.75,1.75,0,0,0-1.75,1.75V56.787H45.5a1.75,1.75,0,0,0-1.75,1.75V69.463a1.75,1.75,0,0,0,1.75,1.75H56.787V82.5a1.75,1.75,0,0,0,1.75,1.75H69.463a1.75,1.75,0,0,0,1.75-1.75V75.667a1.75,1.75,0,0,0-3.5,0V80.75H60.287V69.463a1.751,1.751,0,0,0-1.75-1.75H47.25V60.287H58.537a1.751,1.751,0,0,0,1.75-1.75V47.25h7.426V58.537a1.751,1.751,0,0,0,1.75,1.75H80.75v7.426H69.463a1.75,1.75,0,0,0,0,3.5H82.5A1.75,1.75,0,0,0,84.25,69.463Z" fill="#000"/></svg>
